<svg xmlns="http://www.w3.org/2000/svg" width="64" height="64" viewBox="0 0 64 64" fill="none"><rect width="64" height="64" fill="white"></rect><path d="M7.82561 42.7787V20.7701C12.7825 19.0306 24.738 14.8297 30.5474 12.7876L58.0953 23.3141V40.2348L30.5474 50.7612C24.738 48.7192 12.7825 44.5182 7.82561 42.7787ZM33.8336 11L33.7305 11.0344L7.82561 20.1376L7.77061 20.1582L5 21.1277V42.4212L7.82561 43.4113L29.6811 51.0912L33.8336 52.5488L58.6866 43.0262V20.5226L33.8336 11Z" fill="#E93C35"></path><path d="M54.7812 30.8976H30.2582V34.0122H47.9337C46.5725 39.0932 40.2887 42.9435 32.7194 42.9435C24.1601 42.9435 17.2164 38.0275 17.2164 31.9633C17.2164 25.8991 24.1532 20.9831 32.7194 20.9831C39.1269 20.9831 44.6268 23.7402 46.9918 27.6661H53.5918C50.5393 22.6951 42.3512 19.1335 32.7263 19.1335C20.4957 19.1335 10.582 24.8746 10.582 31.9633C10.582 39.052 20.4957 44.793 32.7263 44.793C44.9568 44.793 54.8705 39.052 54.8705 31.9633C54.8705 31.6058 54.8362 31.2482 54.788 30.8976H54.7812Z" fill="#E93C35"></path><path d="M56.6293 46.3815C56.6293 46.3403 56.6224 46.3059 56.6087 46.2715C56.5949 46.244 56.5674 46.2165 56.533 46.1959C56.4987 46.1753 56.4643 46.1684 56.423 46.1615C56.3818 46.1615 56.3337 46.1546 56.2787 46.1546H56.0312V46.6703H56.2443C56.313 46.6703 56.3749 46.6703 56.423 46.6566C56.4712 46.6497 56.5124 46.6291 56.5468 46.6016C56.5812 46.5741 56.6087 46.5466 56.6224 46.5122C56.6362 46.4778 56.643 46.4365 56.643 46.3884L56.6293 46.3815ZM57.2205 47.4747H56.8493L56.2993 46.8835H56.0243V47.4747H55.7424V45.9415H56.2649C56.368 45.9415 56.4574 45.9415 56.5262 45.9553C56.5949 45.9621 56.6637 45.9896 56.7255 46.024C56.7943 46.0653 56.8493 46.1065 56.8837 46.1615C56.918 46.2165 56.9318 46.2853 56.9318 46.3678C56.9318 46.4778 56.8974 46.5672 56.8355 46.6428C56.7737 46.7184 56.6843 46.7734 56.5743 46.8147L57.2137 47.4816L57.2205 47.4747ZM57.5505 46.7391C57.5505 46.3953 57.4268 46.0928 57.1793 45.8452C56.9318 45.5977 56.6362 45.474 56.2924 45.474C55.9487 45.474 55.6462 45.5977 55.4055 45.8452C55.158 46.0928 55.0343 46.3884 55.0343 46.7391C55.0343 47.0897 55.158 47.3854 55.4055 47.6329C55.653 47.8804 55.9487 48.0042 56.2924 48.0042C56.6362 48.0042 56.9387 47.8804 57.1793 47.6329C57.4268 47.3854 57.5505 47.0897 57.5505 46.7391ZM57.743 46.7391C57.743 47.1378 57.5987 47.4816 57.3168 47.7635C57.0349 48.0454 56.6912 48.1898 56.2924 48.1898C55.8937 48.1898 55.5499 48.0454 55.268 47.7635C54.9862 47.4816 54.8418 47.1378 54.8418 46.7391C54.8418 46.3403 54.9862 45.9965 55.268 45.7146C55.5499 45.4327 55.8937 45.2883 56.2924 45.2883C56.6912 45.2883 57.0349 45.4327 57.3168 45.7146C57.5987 45.9965 57.743 46.3403 57.743 46.7391Z" fill="#E93C35"></path></svg>